0
SECTION
2
HEADER
9
$INSUNITS
70
4
9
$ACADVER
1
AC1014
9
$HANDSEED
5
FFFF
0
ENDSEC
0
SECTION
2
TABLES
0
TABLE
2
VPORT
5
8
100
AcDbSymbolTable
0
ENDTAB
0
TABLE
2
LTYPE
5
5
100
AcDbSymbolTable
0
LTYPE
5
14
100
AcDbSymbolTableRecord
100
AcDbLinetypeTableRecord
2
BYBLOCK
70
0
0
LTYPE
5
15
100
AcDbSymbolTableRecord
100
AcDbLinetypeTableRecord
2
BYLAYER
70
0
0
LTYPE
5
16
100
AcDbSymbolTableRecord
100
AcDbLinetypeTableRecord
2
DASHED
70
0
3
Dashed __ __ __ __ __ __ __ __ __ __ __ __ __ _
72
65
73
2
40
0.75
49
0.5
74
0
49
-0.25
74
0
0
ENDTAB
0
TABLE
2
LAYER
5
2
100
AcDbSymbolTable
70
2
0
LAYER
5
50
100
AcDbSymbolTableRecord
100
AcDbLayerTableRecord
2
0
70
0
62
7
6
CONTINUOUS
0
ENDTAB
0
TABLE
2
STYLE
5
3
100
AcDbSymbolTable
70
1
0
STYLE
5
11
100
AcDbSymbolTableRecord
100
AcDbTextStyleTableRecord
2
STANDARD
70
0
0
ENDTAB
0
TABLE
2
VIEW
5
6
100
AcDbSymbolTable
70
0
0
ENDTAB
0
TABLE
2
UCS
5
7
100
AcDbSymbolTable
70
0
0
ENDTAB
0
TABLE
2
APPID
5
9
100
AcDbSymbolTable
70
2
0
APPID
5
12
100
AcDbSymbolTableRecord
100
AcDbRegAppTableRecord
2
ACAD
70
0
0
ENDTAB
0
TABLE
2
DIMSTYLE
5
A
100
AcDbSymbolTable
70
1
0
ENDTAB
0
TABLE
2
BLOCK_RECORD
5
1
100
AcDbSymbolTable
70
1
0
BLOCK_RECORD
5
1F
100
AcDbSymbolTableRecord
100
AcDbBlockTableRecord
2
*MODEL_SPACE
0
BLOCK_RECORD
5
1B
100
AcDbSymbolTableRecord
100
AcDbBlockTableRecord
2
*PAPER_SPACE
0
ENDTAB
0
ENDSEC
0
SECTION
2
BLOCKS
0
BLOCK
5
20
100
AcDbEntity
100
AcDbBlockBegin
2
*MODEL_SPACE
0
ENDBLK
5
21
100
AcDbEntity
100
AcDbBlockEnd
0
BLOCK
5
1C
100
AcDbEntity
100
AcDbBlockBegin
2
*PAPER_SPACE
0
ENDBLK
5
1D
100
AcDbEntity
100
AcDbBlockEnd
0
ENDSEC
0
SECTION
2
ENTITIES
0
LWPOLYLINE
5
100
100
AcDbEntity
8
0
100
AcDbPolyline
90
8
70
1
43
0.0
10
-229.68749999999997
20
-197.6984664830218
10
-263.68749999999994
20
-197.6984664830218
42
-0.41421356237308815
10
-266.68749999999994
20
-194.6984664830218
10
-266.6875
20
-160.69846648302183
42
-0.41421356237309853
10
-263.68749999999994
20
-157.6984664830218
10
-229.68749999999997
20
-157.69846648302189
42
-0.41421356237309503
10
-226.68749999999994
20
-160.69846648302183
10
-226.68749999999994
20
-194.6984664830218
42
-0.41421356237308815
0
CIRCLE
5
101
100
AcDbEntity
8
0
100
AcDbCircle
10
-10.25
20
-11.833343279975548
30
0
40
2.25
210
0
220
0
230
1
0
CIRCLE
5
102
100
AcDbEntity
8
0
100
AcDbCircle
10
-10.25
20
-28.500009946642226
30
0
40
2.25
210
0
220
0
230
1
0
CIRCLE
5
103
100
AcDbEntity
8
0
100
AcDbCircle
10
-16.749998973489379
20
-45.164527358381967
30
0
40
2.2500000000000009
210
0
220
0
230
1
0
CIRCLE
5
104
100
AcDbEntity
8
0
100
AcDbCircle
10
-10.25
20
-61.833343279975551
30
0
40
2.25
210
0
220
0
230
1
0
CIRCLE
5
105
100
AcDbEntity
8
0
100
AcDbCircle
10
-10.25
20
-78.500009946642223
30
0
40
2.25
210
0
220
0
230
1
0
CIRCLE
5
106
100
AcDbEntity
8
0
100
AcDbCircle
10
-16.749998973489379
20
-95.164527358381974
30
0
40
2.2500000000000009
210
0
220
0
230
1
0
CIRCLE
5
107
100
AcDbEntity
8
0
100
AcDbCircle
10
-16.749998973489379
20
-111.83119402504863
30
0
40
2.2500000000000009
210
0
220
0
230
1
0
CIRCLE
5
108
100
AcDbEntity
8
0
100
AcDbCircle
10
-16.749998973489379
20
-128.49786069171532
30
0
40
2.2500000000000009
210
0
220
0
230
1
0
CIRCLE
5
109
100
AcDbEntity
8
0
100
AcDbCircle
10
-16.749998973489379
20
-145.16452735838197
30
0
40
2.2500000000000009
210
0
220
0
230
1
0
CIRCLE
5
110
100
AcDbEntity
8
0
100
AcDbCircle
10
-16.749998973489379
20
-161.83119402504866
30
0
40
2.2500000000000009
210
0
220
0
230
1
0
CIRCLE
5
111
100
AcDbEntity
8
0
100
AcDbCircle
10
-10.25
20
-178.50000994664225
30
0
40
2.25
210
0
220
0
230
1
0
CIRCLE
5
112
100
AcDbEntity
8
0
100
AcDbCircle
10
-10.25
20
-195.16667661330894
30
0
40
2.25
210
0
220
0
230
1
0
CIRCLE
5
113
100
AcDbEntity
8
0
100
AcDbCircle
10
-184.20853151565996
20
-137.4565096697506
30
0
40
6.0000000000000142
210
0
220
0
230
1
0
LWPOLYLINE
5
114
100
AcDbEntity
8
0
100
AcDbPolyline
90
4
70
1
43
0.0
10
-101.05504901492237
20
-135.67123005283332
10
-95.005051718399628
20
-135.67694949924834
10
-95.010771164814557
20
-141.72694679577106
10
-101.06076846133733
20
-141.7212273493561
0
CIRCLE
5
115
100
AcDbEntity
8
0
100
AcDbCircle
10
-408.15422840296327
20
-262.22182540694791
30
0
40
6.0000000000000142
210
0
220
0
230
1
0
LWPOLYLINE
5
116
100
AcDbEntity
8
0
100
AcDbPolyline
90
4
70
1
43
0.0
10
-304.83733649806572
20
-245.69396920533322
10
-321.90899796374526
20
-245.69396920533322
10
-321.90899796374526
20
-228.74968160856247
10
-304.83733649806572
20
-228.74968160856253
0
LWPOLYLINE
5
117
100
AcDbEntity
8
0
100
AcDbPolyline
90
8
70
1
43
0.0
10
-226.87316723090436
20
-264.70791048884365
10
-322.87316723090453
20
-264.70791048884422
42
-0.4142135623730378
10
-324.87316723090464
20
-262.70791048884399
10
-324.87316723090453
20
-256.70791048884394
42
-0.4142135623730846
10
-322.87316723090447
20
-254.70791048884396
10
-226.87316723090458
20
-254.70791048884391
42
-0.41421356237310025
10
-224.87316723090458
20
-256.70791048884388
10
-224.87316723090484
20
-262.70791048884394
42
-0.41421356237307422
0
LWPOLYLINE
5
118
100
AcDbEntity
8
0
100
AcDbPolyline
90
4
70
1
43
0.0
10
-53.858501404613605
20
-164.96363910963373
10
-53.875459377380054
20
-190.76363353651607
10
-125.17544397570218
20
-190.71676906139029
10
-125.15848600293577
20
-164.91677463450796
0
LWPOLYLINE
5
119
100
AcDbEntity
8
0
100
AcDbPolyline
90
4
70
1
43
0.0
10
-383.50000000000011
20
-112.17108631012265
10
-383.50000000000011
20
-12.171086310122678
10
-53.500000000000014
20
-12.171086310122678
10
-53.500000000000028
20
-112.17108631012265
0
CIRCLE
5
120
100
AcDbEntity
8
0
100
AcDbCircle
10
-236.39095442239909
20
-279.72182540694797
30
0
40
6.0000000000000142
210
0
220
0
230
1
0
LWPOLYLINE
5
121
100
AcDbEntity
8
0
100
AcDbPolyline
90
4
70
1
43
0.0
10
-266.33733649806578
20
-245.69396920533322
10
-283.40899796374526
20
-245.69396920533322
10
-283.40899796374526
20
-228.74968160856247
10
-266.33733649806578
20
-228.74968160856253
0
LWPOLYLINE
5
122
100
AcDbEntity
8
0
100
AcDbPolyline
90
4
70
1
43
0.0
10
-415.80422840296313
20
-241.74682540694801
10
-415.80422840296313
20
-226.44682540694799
10
-400.50422840296312
20
-226.44682540694799
10
-400.50422840296312
20
-241.74682540694801
0
LWPOLYLINE
5
123
100
AcDbEntity
8
0
100
AcDbPolyline
90
4
70
1
43
0.0
10
-117.91095469471335
20
-141.73865280360826
10
-117.90484397111685
20
-135.68865588963735
10
-111.85484705714593
20
-135.69476661323381
10
-111.86095778074244
20
-141.74476352720464
0
CIRCLE
5
124
100
AcDbEntity
8
0
100
AcDbCircle
10
-10.25
20
-203.50000994664225
30
0
40
2.25
210
0
220
0
230
1
0
CIRCLE
5
125
100
AcDbEntity
8
0
100
AcDbCircle
10
-10.25
20
-186.83334327997557
30
0
40
2.25
210
0
220
0
230
1
0
CIRCLE
5
126
100
AcDbEntity
8
0
100
AcDbCircle
10
-10.25
20
-170.16667661330894
30
0
40
2.25
210
0
220
0
230
1
0
CIRCLE
5
127
100
AcDbEntity
8
0
100
AcDbCircle
10
-10.25
20
-153.50000994664222
30
0
40
2.25
210
0
220
0
230
1
0
CIRCLE
5
128
100
AcDbEntity
8
0
100
AcDbCircle
10
-10.25
20
-145.16667661330888
30
0
40
2.25
210
0
220
0
230
1
0
CIRCLE
5
129
100
AcDbEntity
8
0
100
AcDbCircle
10
-16.749998973489379
20
-120.16452735838197
30
0
40
2.2500000000000009
210
0
220
0
230
1
0
CIRCLE
5
130
100
AcDbEntity
8
0
100
AcDbCircle
10
-16.749998973489379
20
-103.4978606917153
30
0
40
2.2500000000000009
210
0
220
0
230
1
0
CIRCLE
5
131
100
AcDbEntity
8
0
100
AcDbCircle
10
-10.25
20
-86.833343279975551
30
0
40
2.25
210
0
220
0
230
1
0
CIRCLE
5
132
100
AcDbEntity
8
0
100
AcDbCircle
10
-10.25
20
-70.16667661330888
30
0
40
2.25
210
0
220
0
230
1
0
CIRCLE
5
133
100
AcDbEntity
8
0
100
AcDbCircle
10
-10.25
20
-53.500009946642223
30
0
40
2.25
210
0
220
0
230
1
0
CIRCLE
5
134
100
AcDbEntity
8
0
100
AcDbCircle
10
-10.25
20
-36.833343279975551
30
0
40
2.25
210
0
220
0
230
1
0
CIRCLE
5
135
100
AcDbEntity
8
0
100
AcDbCircle
10
-10.25
20
-20.166676613308869
30
0
40
2.25
210
0
220
0
230
1
0
CIRCLE
5
136
100
AcDbEntity
8
0
100
AcDbCircle
10
-10.25
20
-3.5000099466422272
30
0
40
2.25
210
0
220
0
230
1
0
LINE
5
137
100
AcDbEntity
8
0
100
AcDbLine
10
-356.91472741927339
20
-279.75559328334259
30
0
11
-356.90230476491075
21
-290.59119440620827
31
0
0
SPLINE
5
138
100
AcDbEntity
8
0
100
AcDbSpline
70
0
71
2
72
6
73
3
74
0
42
0.000000001
43
0.0000000001
44
0.0000000001
40
0
40
0
40
0
40
1
40
1
40
1
10
-356.90230476491075
20
-290.59119440620827
30
0
10
-355.32827886255757
20
-289.11599125726639
30
0
10
-353.1906174757915
20
-288.40753791978369
30
0
0
LINE
5
139
100
AcDbEntity
8
0
100
AcDbLine
10
-353.1906174757915
20
-288.40753791978369
30
0
11
-353.18762618635856
21
-291.01667588594
31
0
0
SPLINE
5
140
100
AcDbEntity
8
0
100
AcDbSpline
70
0
71
2
72
6
73
3
74
0
42
0.000000001
43
0.0000000001
44
0.0000000001
40
0
40
0
40
0
40
1
40
1
40
1
10
-353.18762618635856
20
-291.01667588594
30
0
10
-354.31271467357567
20
-291.38631555650068
30
0
10
-355.63145321966198
20
-292.41613699035247
30
0
0
SPLINE
5
141
100
AcDbEntity
8
0
100
AcDbSpline
70
0
71
2
72
6
73
3
74
0
42
0.000000001
43
0.0000000001
44
0.0000000001
40
0
40
0
40
0
40
1
40
1
40
1
10
-355.63145321966198
20
-292.41613699035247
30
0
10
-356.95019176711492
20
-293.44595723211211
30
0
10
-357.43975168989579
20
-294.81759788846705
30
0
0
LINE
5
142
100
AcDbEntity
8
0
100
AcDbLine
10
-357.43975168989579
20
-294.81759788846705
30
0
11
-359.7726288655856
21
-294.82027245414139
31
0
0
LINE
5
143
100
AcDbEntity
8
0
100
AcDbLine
10
-359.7726288655856
20
-294.82027245414139
30
0
11
-359.78989623743644
21
-279.75888956825167
31
0
0
LINE
5
144
100
AcDbEntity
8
0
100
AcDbLine
10
-359.78989623743644
20
-279.75888956825167
30
0
11
-356.91472741927339
21
-279.75559328334259
31
0
0
LWPOLYLINE
5
145
100
AcDbEntity
8
0
100
AcDbPolyline
90
8
70
1
43
0.0
10
-279.87499999999994
20
-142.17108631012272
10
-279.87499999999994
20
-197.27208631012272
42
-0.41421356237309398
10
-289.875
20
-207.27208631012272
10
-420.99999999999994
20
-207.27208631012269
42
-0.41421356237308982
10
-430.99999999999989
20
-197.27208631012272
10
-430.99999999999994
20
-142.17108631012272
42
-0.41421356237309193
10
-420.99999999999994
20
-132.17108631012263
10
-289.87499999999994
20
-132.17108631012269
42
-0.41421356237309193
0
CIRCLE
5
146
100
AcDbEntity
8
0
100
AcDbCircle
10
-16.749998973489379
20
-11.831194025048628
30
0
40
2.2500000000000009
210
0
220
0
230
1
0
CIRCLE
5
147
100
AcDbEntity
8
0
100
AcDbCircle
10
-16.749998973489379
20
-28.497860691715307
30
0
40
2.2500000000000009
210
0
220
0
230
1
0
CIRCLE
5
148
100
AcDbEntity
8
0
100
AcDbCircle
10
-10.25
20
-45.166676613308887
30
0
40
2.25
210
0
220
0
230
1
0
CIRCLE
5
149
100
AcDbEntity
8
0
100
AcDbCircle
10
-16.749998973489379
20
-61.831194025048632
30
0
40
2.2500000000000009
210
0
220
0
230
1
0
CIRCLE
5
150
100
AcDbEntity
8
0
100
AcDbCircle
10
-16.749998973489379
20
-78.497860691715303
30
0
40
2.2500000000000009
210
0
220
0
230
1
0
CIRCLE
5
151
100
AcDbEntity
8
0
100
AcDbCircle
10
-10.25
20
-95.16667661330888
30
0
40
2.25
210
0
220
0
230
1
0
CIRCLE
5
152
100
AcDbEntity
8
0
100
AcDbCircle
10
-10.25
20
-111.83334327997555
30
0
40
2.25
210
0
220
0
230
1
0
CIRCLE
5
153
100
AcDbEntity
8
0
100
AcDbCircle
10
-10.25
20
-128.50000994664222
30
0
40
2.25
210
0
220
0
230
1
0
CIRCLE
5
154
100
AcDbEntity
8
0
100
AcDbCircle
10
-16.749998973489379
20
-136.83119402504863
30
0
40
2.2500000000000009
210
0
220
0
230
1
0
CIRCLE
5
155
100
AcDbEntity
8
0
100
AcDbCircle
10
-10.25
20
-161.83334327997557
30
0
40
2.25
210
0
220
0
230
1
0
CIRCLE
5
156
100
AcDbEntity
8
0
100
AcDbCircle
10
-16.749998973489379
20
-178.49786069171532
30
0
40
2.2500000000000009
210
0
220
0
230
1
0
CIRCLE
5
157
100
AcDbEntity
8
0
100
AcDbCircle
10
-16.749998973489379
20
-195.164527358382
30
0
40
2.2500000000000009
210
0
220
0
230
1
0
LWPOLYLINE
5
158
100
AcDbEntity
8
0
100
AcDbPolyline
90
8
70
1
43
0.0
10
-380.79586420148183
20
-299.72182540694837
10
-385.79586420148178
20
-299.72182540694837
42
-0.41421356237310752
10
-388.29586420148183
20
-297.22182540694837
10
-388.29586420148183
20
-227.22182540694831
42
-0.4142135623730992
10
-385.79586420148178
20
-224.72182540694834
10
-380.79586420148189
20
-224.72182540694837
42
-0.41421356237310752
10
-378.29586420148183
20
-227.22182540694834
10
-378.29586420148189
20
-297.22182540694843
42
-0.41421356237309503
0
LWPOLYLINE
5
159
100
AcDbEntity
8
0
100
AcDbPolyline
90
4
70
1
43
0.0
10
-78.059436331771479
20
-141.7098357804567
10
-84.109435570006042
20
-141.70679976968836
10
-84.106399559237673
20
-135.65680053145377
10
-78.056400321003096
20
-135.65983654222217
0
CIRCLE
5
160
100
AcDbEntity
8
0
100
AcDbCircle
10
-358.43750000000006
20
-262.2218254069474
30
0
40
6.0000000000000142
210
0
220
0
230
1
0
CIRCLE
5
161
100
AcDbEntity
8
0
100
AcDbCircle
10
-313.39095442239909
20
-279.72182540694797
30
0
40
6.0000000000000142
210
0
220
0
230
1
0
LWPOLYLINE
5
162
100
AcDbEntity
8
0
100
AcDbPolyline
90
4
70
1
43
0.0
10
-244.90899796374526
20
-245.69396920533322
10
-244.90899796374524
20
-228.74968160856247
10
-227.83733649806575
20
-228.74968160856253
10
-227.83733649806575
20
-245.69396920533322
0
LWPOLYLINE
5
163
100
AcDbEntity
8
0
100
AcDbPolyline
90
8
70
1
43
0.0
10
-213.49999999999997
20
-297.22182540694797
10
-213.49999999999997
20
-227.221825406948
42
-0.41421356237309293
10
-203.49999999999997
20
-217.221825406948
10
-16.000000000000014
20
-217.22182540694797
42
-0.41421356237309431
10
-6.0000000000000009
20
-227.221825406948
10
-6.0000000000000124
20
-302.37258300203058
10
-10.849242404917499
20
-307.22182540694797
10
-203.49999999999994
20
-307.22182540694797
42
-0.41421356237309503
0
LWPOLYLINE
5
164
100
AcDbEntity
8
0
100
AcDbPolyline
90
8
70
1
43
0.0
10
-224.87408361545263
20
-217.51112305616783
10
-224.87408361545261
20
-223.51112305616772
42
-0.41421356237308982
10
-226.87408361545261
20
-225.51112305616778
10
-322.87408361545255
20
-225.51112305616769
42
-0.41421356237309503
10
-324.87408361545261
20
-223.51112305616761
10
-324.87408361545272
20
-217.51112305616789
42
-0.41421356237310542
10
-322.87408361545272
20
-215.51112305616786
10
-226.87408361545263
20
-215.51112305616789
42
-0.41421356237309503
0
CIRCLE
5
165
100
AcDbEntity
8
0
100
AcDbCircle
10
-274.89095442239909
20
-279.72182540694797
30
0
40
6.0000000000000142
210
0
220
0
230
1
0
LWPOLYLINE
5
166
100
AcDbEntity
8
0
100
AcDbPolyline
90
4
70
1
43
0.0
10
-366.08750000000009
20
-241.71221379154906
10
-366.08750000000009
20
-226.41221379154905
10
-350.78750000000008
20
-226.41221379154914
10
-350.78750000000008
20
-241.71221379154915
0
LWPOLYLINE
5
167
100
AcDbEntity
8
0
100
AcDbPolyline
90
4
70
1
43
0.0
10
-61.231961435235476
20
-141.72997560295403
10
-67.281771878422219
20
-141.68208404306489
10
-67.233880318533082
20
-135.63227359987815
10
-61.184069875346339
20
-135.68016515976731
0
LWPOLYLINE
5
168
100
AcDbEntity
8
0
100
AcDbPolyline
90
8
70
1
43
0.0
10
-171.20853151565996
20
-192.7419330293786
10
-197.20853151565996
20
-192.7419330293786
42
-0.41421356237309503
10
-199.20853151565996
20
-190.7419330293786
10
-199.20853151565996
20
-164.7419330293786
42
-0.41421356237309503
10
-197.20853151565996
20
-162.7419330293786
10
-171.20853151565998
20
-162.7419330293786
42
-0.41421356237309503
10
-169.20853151566001
20
-164.7419330293786
10
-169.20853151565996
20
-190.7419330293786
42
-0.41421356237309503
0
CIRCLE
5
169
100
AcDbEntity
8
0
100
AcDbCircle
10
-16.749998973489379
20
-203.49786069171532
30
0
40
2.2500000000000009
210
0
220
0
230
1
0
CIRCLE
5
170
100
AcDbEntity
8
0
100
AcDbCircle
10
-16.749998973489379
20
-186.83119402504866
30
0
40
2.2500000000000009
210
0
220
0
230
1
0
CIRCLE
5
171
100
AcDbEntity
8
0
100
AcDbCircle
10
-16.749998973489379
20
-170.164527358382
30
0
40
2.2500000000000009
210
0
220
0
230
1
0
CIRCLE
5
172
100
AcDbEntity
8
0
100
AcDbCircle
10
-16.749998973489379
20
-153.49786069171532
30
0
40
2.2500000000000009
210
0
220
0
230
1
0
CIRCLE
5
173
100
AcDbEntity
8
0
100
AcDbCircle
10
-10.25
20
-136.83334327997554
30
0
40
2.25
210
0
220
0
230
1
0
CIRCLE
5
174
100
AcDbEntity
8
0
100
AcDbCircle
10
-10.25
20
-120.16667661330888
30
0
40
2.25
210
0
220
0
230
1
0
CIRCLE
5
175
100
AcDbEntity
8
0
100
AcDbCircle
10
-10.25
20
-103.50000994664222
30
0
40
2.25
210
0
220
0
230
1
0
CIRCLE
5
176
100
AcDbEntity
8
0
100
AcDbCircle
10
-16.749998973489379
20
-86.831194025048632
30
0
40
2.2500000000000009
210
0
220
0
230
1
0
CIRCLE
5
177
100
AcDbEntity
8
0
100
AcDbCircle
10
-16.749998973489379
20
-70.164527358381974
30
0
40
2.2500000000000009
210
0
220
0
230
1
0
CIRCLE
5
178
100
AcDbEntity
8
0
100
AcDbCircle
10
-16.749998973489379
20
-53.497860691715303
30
0
40
2.2500000000000009
210
0
220
0
230
1
0
CIRCLE
5
179
100
AcDbEntity
8
0
100
AcDbCircle
10
-16.749998973489379
20
-36.831194025048632
30
0
40
2.2500000000000009
210
0
220
0
230
1
0
CIRCLE
5
180
100
AcDbEntity
8
0
100
AcDbCircle
10
-16.749998973489379
20
-20.16452735838195
30
0
40
2.2500000000000009
210
0
220
0
230
1
0
CIRCLE
5
181
100
AcDbEntity
8
0
100
AcDbCircle
10
-16.749998973489379
20
-3.4978606917153074
30
0
40
2.2500000000000009
210
0
220
0
230
1
0
SPLINE
5
182
100
AcDbEntity
8
0
100
AcDbSpline
70
0
71
2
72
6
73
3
74
0
42
0.000000001
43
0.0000000001
44
0.0000000001
40
0
40
0
40
0
40
1
40
1
40
1
10
-409.36499415458064
20
-291.83765426046796
30
0
10
-408.84828208506923
20
-292.35436573393292
30
0
10
-407.93764053405147
20
-292.35436573393292
30
0
0
SPLINE
5
183
100
AcDbEntity
8
0
100
AcDbSpline
70
0
71
2
72
6
73
3
74
0
42
0.000000001
43
0.0000000001
44
0.0000000001
40
0
40
0
40
0
40
1
40
1
40
1
10
-407.93764053405147
20
-292.35436573393292
30
0
10
-407.03723161042552
20
-292.35436573393292
30
0
10
-406.50517164290767
20
-291.81207433111615
30
0
0
SPLINE
5
184
100
AcDbEntity
8
0
100
AcDbSpline
70
0
71
2
72
6
73
3
74
0
42
0.000000001
43
0.0000000001
44
0.0000000001
40
0
40
0
40
0
40
1
40
1
40
1
10
-406.50517164290767
20
-291.81207433111615
30
0
10
-405.97311167538982
20
-291.26978173620648
30
0
10
-405.89125631869655
20
-290.01125588781781
30
0
0
LINE
5
185
100
AcDbEntity
8
0
100
AcDbLine
10
-405.89125631869655
20
-290.01125588781781
30
0
11
-403.02631734431606
21
-290.29774918920941
31
0
0
SPLINE
5
186
100
AcDbEntity
8
0
100
AcDbSpline
70
0
71
2
72
6
73
3
74
0
42
0.000000001
43
0.0000000001
44
0.0000000001
40
0
40
0
40
0
40
1
40
1
40
1
10
-403.02631734431606
20
-290.29774918920941
30
0
10
-403.28211544574123
20
-292.67155542738385
30
0
10
-404.63272927821498
20
-293.70498075849957
30
0
0
SPLINE
5
187
100
AcDbEntity
8
0
100
AcDbSpline
70
0
71
2
72
6
73
3
74
0
42
0.000000001
43
0.0000000001
44
0.0000000001
40
0
40
0
40
0
40
1
40
1
40
1
10
-404.63272927821498
20
-293.70498075849957
30
0
10
-405.98334340871196
20
-294.7384048975224
30
0
10
-408.00926445544582
20
-294.7384048975224
30
0
0
SPLINE
5
188
100
AcDbEntity
8
0
100
AcDbSpline
70
0
71
2
72
6
73
3
74
0
42
0.000000001
43
0.0000000001
44
0.0000000001
40
0
40
0
40
0
40
1
40
1
40
1
10
-408.00926445544582
20
-294.7384048975224
30
0
10
-410.22959171355586
20
-294.7384048975224
30
0
10
-411.49835048735957
20
-293.54126944906659
30
0
0
SPLINE
5
189
100
AcDbEntity
8
0
100
AcDbSpline
70
0
71
2
72
6
73
3
74
0
42
0.000000001
43
0.0000000001
44
0.0000000001
40
0
40
0
40
0
40
1
40
1
40
1
10
-411.49835048735957
20
-293.54126944906659
30
0
10
-412.76710926116328
20
-292.34413400061078
30
0
10
-412.76710926116328
20
-290.56377902395673
30
0
0
SPLINE
5
190
100
AcDbEntity
8
0
100
AcDbSpline
70
0
71
2
72
6
73
3
74
0
42
0.000000001
43
0.0000000001
44
0.0000000001
40
0
40
0
40
0
40
1
40
1
40
1
10
-412.76710926116328
20
-290.56377902395673
30
0
10
-412.76710926116328
20
-289.55081894762463
30
0
10
-412.40387617171626
20
-288.6350615299458
30
0
0
SPLINE
5
191
100
AcDbEntity
8
0
100
AcDbSpline
70
0
71
2
72
6
73
3
74
0
42
0.000000001
43
0.0000000001
44
0.0000000001
40
0
40
0
40
0
40
1
40
1
40
1
10
-412.40387617171626
20
-288.6350615299458
30
0
10
-412.04064248622279
20
-287.71930470831342
30
0
10
-411.25278411925655
20
-286.71657576925702
30
0
0
SPLINE
5
192
100
AcDbEntity
8
0
100
AcDbSpline
70
0
71
2
72
6
73
3
74
0
42
0.000000001
43
0.0000000001
44
0.0000000001
40
0
40
0
40
0
40
1
40
1
40
1
10
-411.25278411925655
20
-286.71657576925702
30
0
10
-410.73095618308406
20
-286.05150118238873
30
0
10
-409.37011002124171
20
-284.80320587522931
30
0
0
SPLINE
5
193
100
AcDbEntity
8
0
100
AcDbSpline
70
0
71
2
72
6
73
3
74
0
42
0.000000001
43
0.0000000001
44
0.0000000001
40
0
40
0
40
0
40
1
40
1
40
1
10
-409.37011002124171
20
-284.80320587522931
30
0
10
-408.00926445544582
20
-283.55491176016278
30
0
10
-407.64603076995235
20
-283.14563408262677
30
0
0
SPLINE
5
194
100
AcDbEntity
8
0
100
AcDbSpline
70
0
71
2
72
6
73
3
74
0
42
0.000000001
43
0.0000000001
44
0.0000000001
40
0
40
0
40
0
40
1
40
1
40
1
10
-407.64603076995235
20
-283.14563408262677
30
0
10
-407.28279768050533
20
-282.73635759718366
30
0
10
-407.05769567311626
20
-282.34754457838483
30
0
0
LINE
5
195
100
AcDbEntity
8
0
100
AcDbLine
10
-407.05769567311626
20
-282.34754457838483
30
0
11
-412.76710926116328
21
-282.34754457838483
31
0
0
LINE
5
196
100
AcDbEntity
8
0
100
AcDbLine
10
-412.76710926116328
20
-282.34754457838483
30
0
11
-412.76710926116328
21
-279.67701211340375
31
0
0
LINE
5
197
100
AcDbEntity
8
0
100
AcDbLine
10
-412.76710926116328
20
-279.67701211340375
30
0
11
-402.688663737186
21
-279.67701211340375
31
0
0
SPLINE
5
198
100
AcDbEntity
8
0
100
AcDbSpline
70
0
71
2
72
6
73
3
74
0
42
0.000000001
43
0.0000000001
44
0.0000000001
40
0
40
0
40
0
40
1
40
1
40
1
10
-402.688663737186
20
-279.67701211340375
30
0
10
-402.85237459958415
20
-281.19133725531049
30
0
10
-403.67092846454005
20
-282.54706635839887
30
0
0
SPLINE
5
199
100
AcDbEntity
8
0
100
AcDbSpline
70
0
71
2
72
6
73
3
74
0
42
0.000000001
43
0.0000000001
44
0.0000000001
40
0
40
0
40
0
40
1
40
1
40
1
10
-403.67092846454005
20
-282.54706635839887
30
0
10
-404.48948247850757
20
-283.90279665358014
30
0
10
-406.90421669305186
20
-286.14358797438092
30
0
0
SPLINE
5
200
100
AcDbEntity
8
0
100
AcDbSpline
70
0
71
2
72
6
73
3
74
0
42
0.000000001
43
0.0000000001
44
0.0000000001
40
0
40
0
40
0
40
1
40
1
40
1
10
-406.90421669305186
20
-286.14358797438092
30
0
10
-408.84828208506923
20
-287.95463874704785
30
0
10
-409.28825496257167
20
-288.59924986727185
30
0
0
SPLINE
5
201
100
AcDbEntity
8
0
100
AcDbSpline
70
0
71
2
72
6
73
3
74
0
42
0.000000001
43
0.0000000001
44
0.0000000001
40
0
40
0
40
0
40
1
40
1
40
1
10
-409.28825496257167
20
-288.59924986727185
30
0
10
-409.88170622409206
20
-289.48942735559888
30
0
10
-409.88170622409206
20
-290.35914078123517
30
0
0
SPLINE
5
202
100
AcDbEntity
8
0
100
AcDbSpline
70
0
71
2
72
6
73
3
74
0
42
0.000000001
43
0.0000000001
44
0.0000000001
40
0
40
0
40
0
40
1
40
1
40
1
10
-409.88170622409206
20
-290.35914078123517
30
0
10
-409.88170622409206
20
-291.3209415949101
30
0
10
-409.36499415458064
20
-291.83765426046796
30
0
0
LWPOLYLINE
5
203
100
AcDbEntity
8
0
100
AcDbPolyline
90
8
70
1
43
0.0
10
-428.22182540694791
20
-312.22182540694797
10
-8.7781745930520572
20
-312.22182540694797
10
-0.99999999999999978
20
-304.443650813896
10
-1
20
0
10
-8.778174593052043
20
7.7781745930520243
10
-428.22182540694791
20
7.7781745930520243
10
-435.99999999999994
20
-1.8873791418627661e-14
10
-435.99999999999994
20
-304.443650813896
0
ENDSEC
0
SECTION
2
OBJECTS
0
DICTIONARY
5
C
100
AcDbDictionary
3
ACAD_GROUP
350
D
3
ACAD_MLINESTYLE
350
17
0
DICTIONARY
5
D
100
AcDbDictionary
0
DICTIONARY
5
1A
330
C
100
AcDbDictionary
0
DICTIONARY
5
17
100
AcDbDictionary
0
ENDSEC
0
EOF
