0
SECTION
2
HEADER
9
$INSUNITS
70
4
9
$ACADVER
1
AC1014
9
$HANDSEED
5
FFFF
0
ENDSEC
0
SECTION
2
TABLES
0
TABLE
2
VPORT
5
8
100
AcDbSymbolTable
0
ENDTAB
0
TABLE
2
LTYPE
5
5
100
AcDbSymbolTable
0
LTYPE
5
14
100
AcDbSymbolTableRecord
100
AcDbLinetypeTableRecord
2
BYBLOCK
70
0
0
LTYPE
5
15
100
AcDbSymbolTableRecord
100
AcDbLinetypeTableRecord
2
BYLAYER
70
0
0
LTYPE
5
16
100
AcDbSymbolTableRecord
100
AcDbLinetypeTableRecord
2
DASHED
70
0
3
Dashed __ __ __ __ __ __ __ __ __ __ __ __ __ _
72
65
73
2
40
0.75
49
0.5
74
0
49
-0.25
74
0
0
ENDTAB
0
TABLE
2
LAYER
5
2
100
AcDbSymbolTable
70
2
0
LAYER
5
50
100
AcDbSymbolTableRecord
100
AcDbLayerTableRecord
2
0
70
0
62
7
6
CONTINUOUS
0
ENDTAB
0
TABLE
2
STYLE
5
3
100
AcDbSymbolTable
70
1
0
STYLE
5
11
100
AcDbSymbolTableRecord
100
AcDbTextStyleTableRecord
2
STANDARD
70
0
0
ENDTAB
0
TABLE
2
VIEW
5
6
100
AcDbSymbolTable
70
0
0
ENDTAB
0
TABLE
2
UCS
5
7
100
AcDbSymbolTable
70
0
0
ENDTAB
0
TABLE
2
APPID
5
9
100
AcDbSymbolTable
70
2
0
APPID
5
12
100
AcDbSymbolTableRecord
100
AcDbRegAppTableRecord
2
ACAD
70
0
0
ENDTAB
0
TABLE
2
DIMSTYLE
5
A
100
AcDbSymbolTable
70
1
0
ENDTAB
0
TABLE
2
BLOCK_RECORD
5
1
100
AcDbSymbolTable
70
1
0
BLOCK_RECORD
5
1F
100
AcDbSymbolTableRecord
100
AcDbBlockTableRecord
2
*MODEL_SPACE
0
BLOCK_RECORD
5
1B
100
AcDbSymbolTableRecord
100
AcDbBlockTableRecord
2
*PAPER_SPACE
0
ENDTAB
0
ENDSEC
0
SECTION
2
BLOCKS
0
BLOCK
5
20
100
AcDbEntity
100
AcDbBlockBegin
2
*MODEL_SPACE
0
ENDBLK
5
21
100
AcDbEntity
100
AcDbBlockEnd
0
BLOCK
5
1C
100
AcDbEntity
100
AcDbBlockBegin
2
*PAPER_SPACE
0
ENDBLK
5
1D
100
AcDbEntity
100
AcDbBlockEnd
0
ENDSEC
0
SECTION
2
ENTITIES
0
POINT
5
100
100
AcDbEntity
8
0
100
AcDbPoint
10
-183.67462120245926
20
-297.50000000000006
30
0
0
POINT
5
101
100
AcDbEntity
8
0
100
AcDbPoint
10
-181.90607376010902
20
-292.50000000000068
30
0
0
POINT
5
102
100
AcDbEntity
8
0
100
AcDbPoint
10
-183.67462120245818
20
-242.50000000000003
30
0
0
POINT
5
103
100
AcDbEntity
8
0
100
AcDbPoint
10
-183.67462120245818
20
-242.50000000000003
30
0
0
POINT
5
104
100
AcDbEntity
8
0
100
AcDbPoint
10
-183.67462120245926
20
-297.50000000000006
30
0
0
LWPOLYLINE
5
105
100
AcDbEntity
8
0
100
AcDbPolyline
90
4
70
1
43
0.0
10
-197.89962120245889
20
-277.50000000000034
10
-203.64962073109209
20
-277.50000000000045
10
-203.6496207310924
20
-257.30000000002866
10
-197.8996212024592
20
-257.3000000000286
0
LWPOLYLINE
5
106
100
AcDbEntity
8
0
100
AcDbPolyline
90
6
70
1
43
0.0
10
-202.49999999999994
20
-315
10
-154.84924240491748
20
-315
10
-154.84924240491748
20
-225
10
-202.49999999999994
20
-225
42
0.41421356237309398
10
-212.49999999999997
20
-235
10
-212.49999999999997
20
-304.99999999999994
42
0.41421356237309398
0
LWPOLYLINE
5
107
100
AcDbEntity
8
0
100
AcDbPolyline
90
4
70
1
43
0.0
10
-162.84962003289996
20
-277.49999999999983
10
-168.59962120245888
20
-277.49999999999989
10
-168.59962120245905
20
-267.49999999999989
10
-162.84962003290013
20
-267.49999999999983
0
LWPOLYLINE
5
108
100
AcDbEntity
8
0
100
AcDbPolyline
90
4
70
1
43
0.0
10
-189.74962120245891
20
-277.50000000000023
10
-195.49962120245891
20
-277.50000000000034
10
-195.49962120245914
20
-260.00000000000034
10
-189.74962120245917
20
-260.00000000000023
0
LWPOLYLINE
5
109
100
AcDbEntity
8
0
100
AcDbPolyline
90
4
70
1
43
0.0
10
-171.79962120245889
20
-277.49999999999994
10
-177.54962120245889
20
-277.50000000000006
10
-177.54962120245906
20
-264.90000000000003
10
-171.79962120245906
20
-264.89999999999998
0
LWPOLYLINE
5
110
100
AcDbEntity
8
0
100
AcDbPolyline
90
4
70
1
43
0.0
10
-180.79962120245887
20
-277.50000000000011
10
-186.54962120245887
20
-277.50000000000017
10
-186.54962120245912
20
-262.50000000000017
10
-180.79962120245912
20
-262.50000000000011
0
LWPOLYLINE
5
111
100
AcDbEntity
8
0
100
AcDbPolyline
90
4
70
1
43
0.0
10
-204.67462120245929
20
-289.94999999999999
10
-162.67462120245935
20
-289.94999999999999
10
-162.67462120245932
20
-305.05000000000001
10
-204.67462120245929
20
-305.05000000000001
0
LWPOLYLINE
5
112
100
AcDbEntity
8
0
100
AcDbPolyline
90
4
70
1
43
0.0
10
-193.67462120245816
20
-237.40000000000006
10
-173.67462120245816
20
-237.40000000000006
10
-173.67462120245816
20
-247.60000000000005
10
-193.67462120245816
20
-247.60000000000002
0
LWPOLYLINE
5
113
100
AcDbEntity
8
0
100
AcDbPolyline
90
4
70
1
43
0.0
10
-204.67462120245816
20
-234.95000000000005
10
-162.67462120245827
20
-234.95000000000007
10
-162.67462120245818
20
-250.0500000000001
10
-204.67462120245816
20
-250.05000000000001
0
LWPOLYLINE
5
114
100
AcDbEntity
8
0
100
AcDbPolyline
90
4
70
1
43
0.0
10
-193.67462120245918
20
-292.39999999999998
10
-173.67462120245926
20
-292.40000000000003
10
-173.67462120245918
20
-302.60000000000002
10
-193.67462120245918
20
-302.59999999999997
0
ENDSEC
0
SECTION
2
OBJECTS
0
DICTIONARY
5
C
100
AcDbDictionary
3
ACAD_GROUP
350
D
3
ACAD_MLINESTYLE
350
17
0
DICTIONARY
5
D
100
AcDbDictionary
0
DICTIONARY
5
1A
330
C
100
AcDbDictionary
0
DICTIONARY
5
17
100
AcDbDictionary
0
ENDSEC
0
EOF
